<svg width="981" height="848" viewBox="0 0 981 848" fill="none" xmlns="http://www.w3.org/2000/svg">
<style>
  @media(prefers-color-scheme: dark) {
    svg {
      filter: invert(1) hue-rotate(180deg);
    }
  }

  html.dark {
    svg {
      filter: invert(1) hue-rotate(180deg);
    }
  }
</style>
<path fill-rule="evenodd" clip-rule="evenodd" d="M607.325 47.8807C615.309 39.7679 628.445 39.9455 636.208 48.2714L975.149 411.823C982.278 419.47 982.315 431.319 975.232 439.01L635.519 807.88C628.036 816.005 615.384 816.525 607.259 809.043L489.566 700.653L360.369 840.939C352.308 849.691 338.434 849.513 330.601 840.555L5.68262 468.992C-0.543274 461.872 -0.930847 451.364 4.7536 443.805L332.152 8.4462C339.204 -0.932391 352.779 -2.25202 361.506 5.59249L514.022 142.682L607.325 47.8807ZM514.022 142.682L776.041 410.594C783.947 418.678 783.585 431.703 775.242 439.335L489.566 700.653L241.942 419.685C234.75 411.524 235.398 399.111 243.403 391.745L514.022 142.682Z" fill="black"/>
</svg>
